<svg width="71" height="70" viewBox="0 0 71 70" fill="none" xmlns="http://www.w3.org/2000/svg">
<path d="M29.2984 60.0626L29.2984 50.7528L15.8632 43.2021L15.9295 52.7588L29.2984 60.0626Z" fill="url(#paint0_linear_492_3350)"/>
<path d="M29.299 50.7526L16.3195 43.2668L41.4185 32.785L55.2514 39.0695L29.299 50.7526Z" fill="url(#paint1_linear_492_3350)"/>
<path d="M41.4607 32.508L55.7737 39.2697L55.7739 48.5537L29.4845 60.2827L15.7073 52.554L15.7069 43.1711L41.4607 32.508Z" stroke="url(#paint2_linear_492_3350)" stroke-width="0.56133"/>
<path d="M29.2984 48.997L29.2984 39.6872L15.8632 32.1365L15.9295 41.6932L29.2984 48.997Z" fill="url(#paint3_linear_492_3350)"/>
<path d="M29.299 39.6862L16.3195 32.2004L41.4185 21.7185L55.2514 28.0031L29.299 39.6862Z" fill="url(#paint4_linear_492_3350)"/>
<path d="M41.4607 21.4415L55.7737 28.2031L55.7739 37.4871L29.4845 49.2161L15.7073 41.4874L15.7069 32.1046L41.4607 21.4415Z" stroke="url(#paint5_linear_492_3350)" stroke-width="0.56133"/>
<path d="M29.2984 37.9308L29.2984 28.621L15.8632 21.0703L15.9295 30.627L29.2984 37.9308Z" fill="url(#paint6_linear_492_3350)"/>
<path d="M26.995 35.1076L26.995 29.4425L16.9353 23.5859L16.9353 29.4425L26.995 35.1076Z" fill="url(#paint7_linear_492_3350)"/>
<path d="M27.3148 46.7686L27.3148 40.8243L17.4382 35.1543L17.4382 41.0109L27.3148 46.7686Z" fill="url(#paint8_linear_492_3350)"/>
<path d="M27.4483 57.7414L27.4979 52.0763L17.4382 46.2197L17.4382 52.0763L27.4483 57.7414Z" fill="url(#paint9_linear_492_3350)"/>
<path d="M29.2986 28.6208L16.3192 21.135L41.4181 10.6531L55.251 16.9377L29.2986 28.6208Z" fill="url(#paint10_linear_492_3350)"/>
<path d="M30.0128 26.1005L19.7746 20.8351L40.4502 12.2004L50.6352 17.0468L30.0128 26.1005Z" fill="#111520"/>
<rect width="2.37019" height="0.560827" transform="matrix(0.914672 -0.406059 -0.858595 -0.514401 22.5875 21.3467)" fill="#67DBCC"/>
<rect width="0.497962" height="0.560827" transform="matrix(0.914672 -0.406059 -0.858595 -0.514401 25.183 20.1932)" fill="#67DBCC"/>
<rect width="1.50723" height="0.560827" transform="matrix(0.914672 -0.406059 -0.858595 -0.514401 26.0649 19.7994)" fill="#67DBCC"/>
<rect width="0.596571" height="0.560827" transform="matrix(0.914672 -0.406059 -0.858595 -0.514401 27.871 18.9964)" fill="#67DBCC"/>
<rect width="1.7702" height="0.560827" transform="matrix(0.914672 -0.406059 -0.858595 -0.514401 28.8428 18.5623)" fill="#67DBCC"/>
<rect width="2.37019" height="0.560827" transform="matrix(0.914672 -0.406059 -0.858595 -0.514401 30.8875 17.6513)" fill="#67DBCC"/>
<rect width="0.402454" height="0.560827" transform="matrix(0.914672 -0.406059 -0.858595 -0.514401 33.483 16.498)" fill="#67DBCC"/>
<rect width="0.829777" height="0.560827" transform="matrix(0.914672 -0.406059 -0.858595 -0.514401 34.2783 16.1434)" fill="#67DBCC"/>
<rect width="1.57318" height="0.560827" transform="matrix(0.914672 -0.406059 -0.858595 -0.514401 35.4637 15.6147)" fill="#67DBCC"/>
<rect width="1.58013" height="0.560827" transform="matrix(0.914672 -0.406059 -0.858595 -0.514401 37.329 14.7842)" fill="#67DBCC"/>
<rect width="2.37019" height="0.560827" transform="matrix(0.914672 -0.406059 -0.858595 -0.514401 29.9907 24.1209)" fill="#67DBCC"/>
<rect width="0.497962" height="0.560827" transform="matrix(0.914672 -0.406059 -0.858595 -0.514401 32.5863 22.9677)" fill="#67DBCC"/>
<rect width="1.50723" height="0.560827" transform="matrix(0.914672 -0.406059 -0.858595 -0.514401 33.4683 22.5737)" fill="#67DBCC"/>
<rect width="0.596571" height="0.560827" transform="matrix(0.914672 -0.406059 -0.858595 -0.514401 35.2743 21.7706)" fill="#67DBCC"/>
<rect width="1.7702" height="0.560827" transform="matrix(0.914672 -0.406059 -0.858595 -0.514401 36.2461 21.3366)" fill="#67DBCC"/>
<rect width="2.37019" height="0.560827" transform="matrix(0.914672 -0.406059 -0.858595 -0.514401 38.2906 20.4254)" fill="#67DBCC"/>
<rect width="0.402454" height="0.560827" transform="matrix(0.914672 -0.406059 -0.858595 -0.514401 40.8862 19.2722)" fill="#67DBCC"/>
<rect width="0.829777" height="0.560827" transform="matrix(0.914672 -0.406059 -0.858595 -0.514401 41.6816 18.9176)" fill="#67DBCC"/>
<rect width="0.677289" height="0.560827" transform="matrix(0.914672 -0.406059 -0.858595 -0.514401 24.8862 21.8293)" fill="#67DBCC"/>
<rect width="0.497962" height="0.560827" transform="matrix(0.914672 -0.406059 -0.858595 -0.514401 25.9333 21.3633)" fill="#67DBCC"/>
<rect width="0.294914" height="0.560827" transform="matrix(0.914672 -0.406059 -0.858595 -0.514401 26.8167 20.9703)" fill="#67DBCC"/>
<rect width="0.596571" height="0.560827" transform="matrix(0.914672 -0.406059 -0.858595 -0.514401 27.5138 20.6595)" fill="#67DBCC"/>
<rect width="1.7702" height="0.560827" transform="matrix(0.914672 -0.406059 -0.858595 -0.514401 28.4856 20.2255)" fill="#67DBCC"/>
<rect width="0.619793" height="0.560827" transform="matrix(0.914672 -0.406059 -0.858595 -0.514401 30.5321 19.3157)" fill="#67DBCC"/>
<rect width="0.402454" height="0.560827" transform="matrix(0.914672 -0.406059 -0.858595 -0.514401 31.5269 18.8731)" fill="#67DBCC"/>
<rect width="0.0765462" height="0.560827" transform="matrix(0.914672 -0.406059 -0.858595 -0.514401 32.323 18.519)" fill="#67DBCC"/>
<rect width="1.12842" height="0.560827" transform="matrix(0.914672 -0.406059 -0.858595 -0.514401 32.8198 18.2965)" fill="#67DBCC"/>
<rect width="2.66215" height="0.560827" transform="matrix(0.914672 -0.406059 -0.858595 -0.514401 34.2771 17.6459)" fill="#67DBCC"/>
<rect width="0.245624" height="0.560827" transform="matrix(0.914672 -0.406059 -0.858595 -0.514401 37.1399 16.3742)" fill="#67DBCC"/>
<rect width="0.764274" height="0.560827" transform="matrix(0.914672 -0.406059 -0.858595 -0.514401 37.7919 16.0833)" fill="#67DBCC"/>
<rect width="1.21488" height="0.560827" transform="matrix(0.914672 -0.406059 -0.858595 -0.514401 38.9177 15.5815)" fill="#67DBCC"/>
<rect width="0.764274" height="0.560827" transform="matrix(0.914672 -0.406059 -0.858595 -0.514401 40.4562 14.897)" fill="#67DBCC"/>
<rect width="0.677289" height="0.560827" transform="matrix(0.914672 -0.406059 -0.858595 -0.514401 27.9813 22.6437)" fill="#67DBCC"/>
<rect width="0.497962" height="0.560827" transform="matrix(0.914672 -0.406059 -0.858595 -0.514401 29.0284 22.1779)" fill="#67DBCC"/>
<rect width="0.294914" height="0.560827" transform="matrix(0.914672 -0.406059 -0.858595 -0.514401 29.9117 21.7847)" fill="#67DBCC"/>
<rect width="0.596571" height="0.560827" transform="matrix(0.914672 -0.406059 -0.858595 -0.514401 30.6089 21.4739)" fill="#67DBCC"/>
<rect width="1.7702" height="0.560827" transform="matrix(0.914672 -0.406059 -0.858595 -0.514401 31.5807 21.0399)" fill="#67DBCC"/>
<rect width="0.619793" height="0.560827" transform="matrix(0.914672 -0.406059 -0.858595 -0.514401 33.6273 20.1301)" fill="#67DBCC"/>
<rect width="0.402454" height="0.560827" transform="matrix(0.914672 -0.406059 -0.858595 -0.514401 34.6219 19.6875)" fill="#67DBCC"/>
<rect width="0.0765462" height="0.560827" transform="matrix(0.914672 -0.406059 -0.858595 -0.514401 35.4181 19.3334)" fill="#67DBCC"/>
<rect width="1.12842" height="0.560827" transform="matrix(0.914672 -0.406059 -0.858595 -0.514401 35.9149 19.1109)" fill="#67DBCC"/>
<rect width="2.66215" height="0.560827" transform="matrix(0.914672 -0.406059 -0.858595 -0.514401 37.3722 18.4603)" fill="#67DBCC"/>
<rect width="0.245624" height="0.560827" transform="matrix(0.914672 -0.406059 -0.858595 -0.514401 40.2351 17.1885)" fill="#67DBCC"/>
<rect width="0.764274" height="0.560827" transform="matrix(0.914672 -0.406059 -0.858595 -0.514401 40.887 16.8975)" fill="#67DBCC"/>
<rect width="1.21488" height="0.560827" transform="matrix(0.914672 -0.406059 -0.858595 -0.514401 42.0128 16.3959)" fill="#67DBCC"/>
<path d="M41.4607 10.3762L55.7737 17.1378L55.7739 26.4218L29.4845 38.1509L15.7073 30.4221L15.7069 21.0393L41.4607 10.3762Z" stroke="url(#paint11_linear_492_3350)" stroke-width="0.56133"/>
<g filter="url(#filter0_f_492_3350)">
<path d="M33.5338 54.2672L33.5338 31.3481L50.6353 23.0822L50.6353 46.0013L33.5338 54.2672Z" fill="url(#paint12_linear_492_3350)"/>
</g>
<g filter="url(#filter1_b_492_3350)">
<path d="M29.8114 59.8004L29.8112 29.0178L55.6137 17.5498L55.3627 48.3324L29.8114 59.8004Z" fill="white" fill-opacity="0.06"/>
</g>
<path d="M20.0132 30.364L20.0191 27.9398L18.4442 27.1074L18.4477 29.5042L20.0132 30.364Z" fill="url(#paint13_linear_492_3350)"/>
<path d="M19.9532 30.4268L19.9532 27.9119L21.0159 27.3505L21.0121 29.7402L19.9532 30.4268Z" fill="url(#paint14_linear_492_3350)"/>
<path d="M19.953 27.9118L18.444 27.107L19.3764 26.5265L20.9989 27.3035L19.953 27.9118Z" fill="url(#paint15_linear_492_3350)"/>
<path d="M19.3922 26.5201L21.038 27.3178L21.038 29.7591L19.9531 30.4017L18.465 29.5089L18.4647 27.118L19.3922 26.5201Z" stroke="url(#paint16_linear_492_3350)" stroke-width="0.0420998"/>
<path d="M20.0132 41.4295L20.0191 39.0053L18.4442 38.1729L18.4477 40.5697L20.0132 41.4295Z" fill="#67DBCC"/>
<path d="M19.9532 41.4923L19.9532 38.9773L21.0159 38.416L21.0121 40.8057L19.9532 41.4923Z" fill="url(#paint17_linear_492_3350)"/>
<path d="M19.953 38.9773L18.444 38.1725L19.3764 37.592L20.9989 38.369L19.953 38.9773Z" fill="url(#paint18_linear_492_3350)"/>
<path d="M19.3922 37.5856L21.038 38.3833L21.038 40.8246L19.9531 41.4672L18.465 40.5744L18.4647 38.1835L19.3922 37.5856Z" stroke="url(#paint19_linear_492_3350)" stroke-width="0.0420998"/>
<path d="M20.0132 52.4949L20.0191 50.0707L18.4442 49.2383L18.4477 51.6351L20.0132 52.4949Z" fill="url(#paint20_linear_492_3350)"/>
<path d="M19.9532 52.5576L19.9532 50.0426L21.0159 49.4813L21.0121 51.871L19.9532 52.5576Z" fill="url(#paint21_linear_492_3350)"/>
<path d="M19.953 50.0427L18.444 49.2379L19.3764 48.6573L20.9989 49.4344L19.953 50.0427Z" fill="url(#paint22_linear_492_3350)"/>
<path d="M19.3922 48.6509L21.038 49.4486L21.038 51.8899L19.9531 52.5325L18.465 51.6397L18.4647 49.2488L19.3922 48.6509Z" stroke="url(#paint23_linear_492_3350)" stroke-width="0.0420998"/>
<path d="M24.1156 32.3758L24.1216 29.9516L22.5466 29.1191L22.5501 31.5159L24.1156 32.3758Z" fill="url(#paint24_linear_492_3350)"/>
<path d="M24.0557 32.4385L24.0557 29.9236L25.1183 29.3622L25.1145 31.752L24.0557 32.4385Z" fill="url(#paint25_linear_492_3350)"/>
<path d="M24.0554 29.9235L22.5464 29.1188L23.4788 28.5382L25.1013 29.3152L24.0554 29.9235Z" fill="url(#paint26_linear_492_3350)"/>
<path d="M23.4947 28.5318L25.1405 29.3296L25.1405 31.7709L24.0555 32.4134L22.5674 31.5206L22.5671 29.1297L23.4947 28.5318Z" stroke="url(#paint27_linear_492_3350)" stroke-width="0.0420998"/>
<path d="M24.1156 43.4412L24.1216 41.017L22.5466 40.1846L22.5501 42.5814L24.1156 43.4412Z" fill="url(#paint28_linear_492_3350)"/>
<path d="M24.0557 43.5039L24.0557 40.989L25.1183 40.4276L25.1145 42.8174L24.0557 43.5039Z" fill="url(#paint29_linear_492_3350)"/>
<path d="M24.0554 40.9889L22.5464 40.1842L23.4788 39.6036L25.1013 40.3807L24.0554 40.9889Z" fill="url(#paint30_linear_492_3350)"/>
<path d="M23.4947 39.5972L25.1405 40.395L25.1405 42.8363L24.0555 43.4789L22.5674 42.5861L22.5671 40.1952L23.4947 39.5972Z" stroke="url(#paint31_linear_492_3350)" stroke-width="0.0420998"/>
<path d="M24.1156 54.5076L24.1216 52.0834L22.5466 51.251L22.5501 53.6478L24.1156 54.5076Z" fill="url(#paint32_linear_492_3350)"/>
<path d="M24.0557 54.5703L24.0557 52.0554L25.1183 51.494L25.1145 53.8838L24.0557 54.5703Z" fill="url(#paint33_linear_492_3350)"/>
<path d="M24.0554 52.0553L22.5464 51.2506L23.4788 50.67L25.1013 51.4471L24.0554 52.0553Z" fill="url(#paint34_linear_492_3350)"/>
<path d="M23.4947 50.6636L25.1405 51.4614L25.1405 53.9027L24.0555 54.5453L22.5674 53.6525L22.5671 51.2616L23.4947 50.6636Z" stroke="url(#paint35_linear_492_3350)" stroke-width="0.0420998"/>
<defs>
<filter id="filter0_f_492_3350" x="26.7979" y="16.3463" width="30.5734" height="44.6569" filterUnits="userSpaceOnUse" color-interpolation-filters="sRGB">
<feFlood flood-opacity="0" result="BackgroundImageFix"/>
<feBlend mode="normal" in="SourceGraphic" in2="BackgroundImageFix" result="shape"/>
<feGaussianBlur stdDeviation="3.36798" result="effect1_foregroundBlur_492_3350"/>
</filter>
<filter id="filter1_b_492_3350" x="27.9401" y="15.6787" width="29.5448" height="45.9929" filterUnits="userSpaceOnUse" color-interpolation-filters="sRGB">
<feFlood flood-opacity="0" result="BackgroundImageFix"/>
<feGaussianBlur in="BackgroundImageFix" stdDeviation="0.93555"/>
<feComposite in2="SourceAlpha" operator="in" result="effect1_backgroundBlur_492_3350"/>
<feBlend mode="normal" in="SourceGraphic" in2="effect1_backgroundBlur_492_3350" result="shape"/>
</filter>
<linearGradient id="paint0_linear_492_3350" x1="10.4971" y1="41.3875" x2="39.0512" y2="70.8303" gradientUnits="userSpaceOnUse">
<stop stop-color="#151C30"/>
<stop offset="0.58" stop-color="#162743"/>
<stop offset="1" stop-color="#7F8F9E"/>
</linearGradient>
<linearGradient id="paint1_linear_492_3350" x1="28.5852" y1="30.4648" x2="35.0805" y2="48.692" gradientUnits="userSpaceOnUse">
<stop stop-color="#5C6672"/>
<stop offset="1" stop-color="#10152D"/>
</linearGradient>
<linearGradient id="paint2_linear_492_3350" x1="25.8469" y1="28.3094" x2="48.9025" y2="83.0792" gradientUnits="userSpaceOnUse">
<stop stop-color="#6C7789"/>
<stop offset="1" stop-color="#0F1B47"/>
</linearGradient>
<linearGradient id="paint3_linear_492_3350" x1="10.4971" y1="30.3219" x2="39.0512" y2="59.7647" gradientUnits="userSpaceOnUse">
<stop stop-color="#151C30"/>
<stop offset="0.58" stop-color="#162743"/>
<stop offset="1" stop-color="#7F8F9E"/>
</linearGradient>
<linearGradient id="paint4_linear_492_3350" x1="28.5852" y1="19.3984" x2="35.0805" y2="37.6256" gradientUnits="userSpaceOnUse">
<stop stop-color="#5C6672"/>
<stop offset="1" stop-color="#10152D"/>
</linearGradient>
<linearGradient id="paint5_linear_492_3350" x1="25.8469" y1="17.2428" x2="48.9025" y2="72.0126" gradientUnits="userSpaceOnUse">
<stop stop-color="#6C7789"/>
<stop offset="1" stop-color="#0F1B47"/>
</linearGradient>
<linearGradient id="paint6_linear_492_3350" x1="10.4971" y1="19.2557" x2="39.0512" y2="48.6984" gradientUnits="userSpaceOnUse">
<stop stop-color="#151C30"/>
<stop offset="0.58" stop-color="#162743"/>
<stop offset="1" stop-color="#7F8F9E"/>
</linearGradient>
<linearGradient id="paint7_linear_492_3350" x1="13.4204" y1="21.6754" x2="35.5782" y2="43.7309" gradientUnits="userSpaceOnUse">
<stop stop-color="#2A3450"/>
<stop offset="0.58" stop-color="#1B2D4C"/>
<stop offset="1" stop-color="#7F8F9E"/>
</linearGradient>
<linearGradient id="paint8_linear_492_3350" x1="13.9234" y1="33.2438" x2="36.0811" y2="55.2993" gradientUnits="userSpaceOnUse">
<stop stop-color="#2A3450"/>
<stop offset="0.58" stop-color="#1B2D4C"/>
<stop offset="1" stop-color="#7F8F9E"/>
</linearGradient>
<linearGradient id="paint9_linear_492_3350" x1="13.9234" y1="44.3092" x2="36.0811" y2="66.3647" gradientUnits="userSpaceOnUse">
<stop stop-color="#2A3450"/>
<stop offset="0.58" stop-color="#1B2D4C"/>
<stop offset="1" stop-color="#7F8F9E"/>
</linearGradient>
<linearGradient id="paint10_linear_492_3350" x1="28.5848" y1="8.33295" x2="35.0801" y2="26.5602" gradientUnits="userSpaceOnUse">
<stop stop-color="#5C6672"/>
<stop offset="1" stop-color="#10152D"/>
</linearGradient>
<linearGradient id="paint11_linear_492_3350" x1="25.8469" y1="6.1776" x2="48.9025" y2="60.9473" gradientUnits="userSpaceOnUse">
<stop stop-color="#6C7789"/>
<stop offset="1" stop-color="#0F1B47"/>
</linearGradient>
<linearGradient id="paint12_linear_492_3350" x1="42.0845" y1="23.0822" x2="42.0845" y2="54.2672" gradientUnits="userSpaceOnUse">
<stop stop-color="#29C8BF"/>
<stop offset="1" stop-color="#0D4DBC"/>
</linearGradient>
<linearGradient id="paint13_linear_492_3350" x1="18.6091" y1="27.2375" x2="20.7506" y2="29.4457" gradientUnits="userSpaceOnUse">
<stop stop-color="#151C30"/>
<stop offset="1" stop-color="#7F8F9E"/>
</linearGradient>
<linearGradient id="paint14_linear_492_3350" x1="20.0518" y1="27.3505" x2="20.0518" y2="30.5988" gradientUnits="userSpaceOnUse">
<stop stop-color="#181E2F"/>
<stop offset="1" stop-color="#3E4352"/>
</linearGradient>
<linearGradient id="paint15_linear_492_3350" x1="18.9992" y1="26.6583" x2="19.4863" y2="28.0254" gradientUnits="userSpaceOnUse">
<stop stop-color="#5C6672"/>
<stop offset="1" stop-color="#10152D"/>
</linearGradient>
<linearGradient id="paint16_linear_492_3350" x1="18.7935" y1="26.496" x2="20.5227" y2="30.6037" gradientUnits="userSpaceOnUse">
<stop stop-color="white" stop-opacity="0.05"/>
<stop offset="1" stop-color="#1C2C66"/>
</linearGradient>
<linearGradient id="paint17_linear_492_3350" x1="20.0518" y1="38.416" x2="20.0518" y2="41.6643" gradientUnits="userSpaceOnUse">
<stop stop-color="#181E2F"/>
<stop offset="1" stop-color="#3E4352"/>
</linearGradient>
<linearGradient id="paint18_linear_492_3350" x1="18.9992" y1="37.7238" x2="19.4863" y2="39.0909" gradientUnits="userSpaceOnUse">
<stop stop-color="#5C6672"/>
<stop offset="1" stop-color="#10152D"/>
</linearGradient>
<linearGradient id="paint19_linear_492_3350" x1="18.7935" y1="37.5615" x2="20.5227" y2="41.6692" gradientUnits="userSpaceOnUse">
<stop stop-color="white" stop-opacity="0.05"/>
<stop offset="1" stop-color="#1C2C66"/>
</linearGradient>
<linearGradient id="paint20_linear_492_3350" x1="18.6091" y1="49.3683" x2="20.7506" y2="51.5765" gradientUnits="userSpaceOnUse">
<stop stop-color="#151C30"/>
<stop offset="1" stop-color="#7F8F9E"/>
</linearGradient>
<linearGradient id="paint21_linear_492_3350" x1="20.0518" y1="49.4813" x2="20.0518" y2="52.7296" gradientUnits="userSpaceOnUse">
<stop stop-color="#181E2F"/>
<stop offset="1" stop-color="#3E4352"/>
</linearGradient>
<linearGradient id="paint22_linear_492_3350" x1="18.9992" y1="48.7892" x2="19.4863" y2="50.1562" gradientUnits="userSpaceOnUse">
<stop stop-color="#5C6672"/>
<stop offset="1" stop-color="#10152D"/>
</linearGradient>
<linearGradient id="paint23_linear_492_3350" x1="18.7935" y1="48.6268" x2="20.5227" y2="52.7345" gradientUnits="userSpaceOnUse">
<stop stop-color="white" stop-opacity="0.05"/>
<stop offset="1" stop-color="#1C2C66"/>
</linearGradient>
<linearGradient id="paint24_linear_492_3350" x1="22.7115" y1="29.2492" x2="24.853" y2="31.4574" gradientUnits="userSpaceOnUse">
<stop stop-color="#151C30"/>
<stop offset="1" stop-color="#7F8F9E"/>
</linearGradient>
<linearGradient id="paint25_linear_492_3350" x1="24.1542" y1="29.3622" x2="24.1542" y2="32.6106" gradientUnits="userSpaceOnUse">
<stop stop-color="#181E2F"/>
<stop offset="1" stop-color="#3E4352"/>
</linearGradient>
<linearGradient id="paint26_linear_492_3350" x1="23.1016" y1="28.67" x2="23.5887" y2="30.0371" gradientUnits="userSpaceOnUse">
<stop stop-color="#5C6672"/>
<stop offset="1" stop-color="#10152D"/>
</linearGradient>
<linearGradient id="paint27_linear_492_3350" x1="22.8959" y1="28.5077" x2="24.6251" y2="32.6154" gradientUnits="userSpaceOnUse">
<stop stop-color="white" stop-opacity="0.05"/>
<stop offset="1" stop-color="#1C2C66"/>
</linearGradient>
<linearGradient id="paint28_linear_492_3350" x1="22.7115" y1="40.3146" x2="24.853" y2="42.5228" gradientUnits="userSpaceOnUse">
<stop stop-color="#151C30"/>
<stop offset="1" stop-color="#7F8F9E"/>
</linearGradient>
<linearGradient id="paint29_linear_492_3350" x1="24.1542" y1="40.4276" x2="24.1542" y2="43.676" gradientUnits="userSpaceOnUse">
<stop stop-color="#181E2F"/>
<stop offset="1" stop-color="#3E4352"/>
</linearGradient>
<linearGradient id="paint30_linear_492_3350" x1="23.1016" y1="39.7355" x2="23.5887" y2="41.1025" gradientUnits="userSpaceOnUse">
<stop stop-color="#5C6672"/>
<stop offset="1" stop-color="#10152D"/>
</linearGradient>
<linearGradient id="paint31_linear_492_3350" x1="22.8959" y1="39.5731" x2="24.6251" y2="43.6809" gradientUnits="userSpaceOnUse">
<stop stop-color="white" stop-opacity="0.05"/>
<stop offset="1" stop-color="#1C2C66"/>
</linearGradient>
<linearGradient id="paint32_linear_492_3350" x1="22.7115" y1="51.381" x2="24.853" y2="53.5892" gradientUnits="userSpaceOnUse">
<stop stop-color="#151C30"/>
<stop offset="1" stop-color="#7F8F9E"/>
</linearGradient>
<linearGradient id="paint33_linear_492_3350" x1="24.1542" y1="51.494" x2="24.1542" y2="54.7424" gradientUnits="userSpaceOnUse">
<stop stop-color="#181E2F"/>
<stop offset="1" stop-color="#3E4352"/>
</linearGradient>
<linearGradient id="paint34_linear_492_3350" x1="23.1016" y1="50.8019" x2="23.5887" y2="52.1689" gradientUnits="userSpaceOnUse">
<stop stop-color="#5C6672"/>
<stop offset="1" stop-color="#10152D"/>
</linearGradient>
<linearGradient id="paint35_linear_492_3350" x1="22.8959" y1="50.6395" x2="24.6251" y2="54.7473" gradientUnits="userSpaceOnUse">
<stop stop-color="white" stop-opacity="0.05"/>
<stop offset="1" stop-color="#1C2C66"/>
</linearGradient>
</defs>
</svg>
