<svg width="32" height="31" viewBox="0 0 32 31" fill="none" xmlns="http://www.w3.org/2000/svg">
<path d="M22.5244 15.5012H31.0038" stroke="white" stroke-width="0.3" stroke-linecap="round"/>
<path d="M22.4743 16.3199L30.8893 17.3647" stroke="white" stroke-width="0.3" stroke-linecap="round"/>
<path d="M22.3219 17.1254L30.5388 19.2225" stroke="white" stroke-width="0.3" stroke-linecap="round"/>
<path d="M22.0725 17.8986L29.9658 21.0018" stroke="white" stroke-width="0.3" stroke-linecap="round"/>
<path d="M21.7236 18.6429L29.1633 22.7184" stroke="white" stroke-width="0.3" stroke-linecap="round"/>
<path d="M21.2812 19.3394L28.1383 24.3363" stroke="white" stroke-width="0.3" stroke-linecap="round"/>
<path d="M20.7559 19.9744L26.9446 25.7814" stroke="white" stroke-width="0.3" stroke-linecap="round"/>
<path d="M20.1542 20.5409L25.5811 27.0678" stroke="white" stroke-width="0.3" stroke-linecap="round"/>
<path d="M19.493 21.022L24.0449 28.1889" stroke="white" stroke-width="0.3" stroke-linecap="round"/>
<path d="M18.775 21.418L22.3954 29.0994" stroke="white" stroke-width="0.3" stroke-linecap="round"/>
<path d="M18.0063 21.7224L20.6542 29.7922" stroke="white" stroke-width="0.3" stroke-linecap="round"/>
<path d="M17.2243 21.921L18.8131 30.2657" stroke="white" stroke-width="0.3" stroke-linecap="round"/>
<path d="M16.3995 22.0236L16.9552 30.5" stroke="white" stroke-width="0.3" stroke-linecap="round"/>
<path d="M15.5609 22.0209L15.0051 30.4973" stroke="white" stroke-width="0.3" stroke-linecap="round"/>
<path d="M14.7382 21.9132L13.1494 30.2579" stroke="white" stroke-width="0.3" stroke-linecap="round"/>
<path d="M13.9589 21.7097L11.311 29.7795" stroke="white" stroke-width="0.3" stroke-linecap="round"/>
<path d="M13.193 21.4016L9.57263 29.083" stroke="white" stroke-width="0.3" stroke-linecap="round"/>
<path d="M12.4876 21.0077L7.90955 28.1578" stroke="white" stroke-width="0.3" stroke-linecap="round"/>
<path d="M11.8241 20.5199L6.39722 27.0469" stroke="white" stroke-width="0.3" stroke-linecap="round"/>
<path d="M11.2272 19.9533L5.03857 25.7603" stroke="white" stroke-width="0.3" stroke-linecap="round"/>
<path d="M10.7071 19.3185L3.83179 24.2903" stroke="white" stroke-width="0.3" stroke-linecap="round"/>
<path d="M10.2704 18.625L2.83069 22.7005" stroke="white" stroke-width="0.3" stroke-linecap="round"/>
<path d="M9.92531 17.8842L2.03198 20.9873" stroke="white" stroke-width="0.3" stroke-linecap="round"/>
<path d="M9.6781 17.1153L1.46118 19.2123" stroke="white" stroke-width="0.3" stroke-linecap="round"/>
<path d="M9.5291 16.3166L1.11389 17.3596" stroke="white" stroke-width="0.3" stroke-linecap="round"/>
<path d="M9.47912 15.4488L1 15.3834" stroke="white" stroke-width="0.3" stroke-linecap="round"/>
<path d="M9.53551 14.6338L1.12854 13.5262" stroke="white" stroke-width="0.3" stroke-linecap="round"/>
<path d="M9.69186 13.8364L1.49109 11.6769" stroke="white" stroke-width="0.3" stroke-linecap="round"/>
<path d="M9.95253 13.0484L2.09448 9.85663" stroke="white" stroke-width="0.3" stroke-linecap="round"/>
<path d="M10.2863 12.3482L2.87683 8.21777" stroke="white" stroke-width="0.3" stroke-linecap="round"/>
<path d="M10.7461 11.6294L3.92566 6.58246" stroke="white" stroke-width="0.3" stroke-linecap="round"/>
<path d="M11.262 11.012L5.1156 5.16016" stroke="white" stroke-width="0.3" stroke-linecap="round"/>
<path d="M11.846 10.464L6.46667 3.89758" stroke="white" stroke-width="0.3" stroke-linecap="round"/>
<path d="M12.5422 9.95975L8.04297 2.75958" stroke="white" stroke-width="0.3" stroke-linecap="round"/>
<path d="M13.2557 9.57122L9.6925 1.86304" stroke="white" stroke-width="0.3" stroke-linecap="round"/>
<path d="M14.0282 9.26984L11.4717 1.17053" stroke="white" stroke-width="0.3" stroke-linecap="round"/>
<path d="M14.802 9.0768L13.277 0.720215" stroke="white" stroke-width="0.3" stroke-linecap="round"/>
<path d="M15.5732 8.98043L15.0828 0.5" stroke="#74A3FF" stroke-width="0.3" stroke-linecap="round"/>
<path d="M16.4867 8.98457L17.1077 0.512695" stroke="#74A3FF" stroke-width="0.3" stroke-linecap="round"/>
<path d="M17.2519 9.0863L18.9043 0.753967" stroke="#74A3FF" stroke-width="0.3" stroke-linecap="round"/>
<path d="M18.0797 9.30427L20.7882 1.2547" stroke="white" stroke-width="0.3" stroke-linecap="round"/>
<path d="M18.845 9.61776L22.5505 1.97723" stroke="white" stroke-width="0.3" stroke-linecap="round"/>
<path d="M19.5513 10.0178L24.1816 2.90149" stroke="white" stroke-width="0.3" stroke-linecap="round"/>
<path d="M20.198 10.4984L25.6721 4.01117" stroke="white" stroke-width="0.3" stroke-linecap="round"/>
<path d="M20.7812 11.0546L27.0118 5.29279" stroke="white" stroke-width="0.3" stroke-linecap="round"/>
<path d="M21.3213 11.7194L28.2327 6.79803" stroke="white" stroke-width="0.3" stroke-linecap="round"/>
<path d="M21.7507 12.4098L29.2202 8.38947" stroke="white" stroke-width="0.3" stroke-linecap="round"/>
<path d="M22.0928 13.1568L30.0092 10.113" stroke="white" stroke-width="0.3" stroke-linecap="round"/>
<path d="M22.3328 13.9196L30.5654 11.8851" stroke="white" stroke-width="0.3" stroke-linecap="round"/>
<path d="M22.4796 14.73L30.9023 13.75" stroke="white" stroke-width="0.3" stroke-linecap="round"/>
</svg>
